# xmcd
#
# Track frame offsets:
#	150
#	15231
#	31247
#	45930
#	60827
#	72659
#	88299
#	103039
#	117983
#	133226
#	149361
#	162574
#	177641
#
# Disc length: 2583 seconds
#
# Revision: 1
# Processed by: cddbd v1.5.2PL0 Copyright (c) Steve Scherf et al.
# Submitted via: audiograbber 1.83.01
#
DISCID=b60a150d
DTITLE=WHITE STARS - Du bist mein Superstar
DYEAR=2011
DGENRE=Schlager
TTITLE0=Du bist mein Superstar 
TTITLE1=Ich muss ein Fremder für dich sein
TTITLE2=Ich war nie ein Casanova
TTITLE3=Tausendmal I Love You 
TTITLE4=Ave Maria (Glocken der Liebe)
TTITLE5=Wenn du heute Abend traurig bist
TTITLE6=Was man wirklich liebt 
TTITLE7=Hey du bist Spitze
TTITLE8=Junges Mädchen weine nicht 
TTITLE9=Ich schenk dir meinen Himmel, Cherie
TTITLE10=Bye, Bye Little Lady (dt. Version)
TTITLE11=Nie mehr
TTITLE12=Ich war nie ein Casanova (Disco-Mix 2011)
EXTD=
EXTT0=
EXTT1=
EXTT2=
EXTT3=
EXTT4=
EXTT5=
EXTT6=
EXTT7=
EXTT8=
EXTT9=
EXTT10=
EXTT11=
EXTT12=
PLAYORDER=
